<?xml version="1.0" encoding="utf-8"?>
<!-- Generator: Adobe Illustrator 27.8.1, SVG Export Plug-In . SVG Version: 6.00 Build 0)  -->
<svg version="1.1" id="Calque_1" xmlns="http://www.w3.org/2000/svg" xmlns:xlink="http://www.w3.org/1999/xlink" x="0px" y="0px"
	 viewBox="0 0 93.19 92.97" style="enable-background:new 0 0 93.19 92.97;" xml:space="preserve">
<style type="text/css">
	.st0{fill:#1E1E1C;}
</style>
<path class="st0" d="M85.15,68.42c-1.36-0.52-2.37-1.15-3.02-1.9c-0.65-0.75-1.23-1.83-1.75-3.26L60.62,5.34h-8.27l-8.7,24.96l0,0
	l-9.43,26.95c0,0-6.39,16.03-7.1,17.58l0,0c-0.03,0.06-0.05,0.12-0.08,0.17c-0.75,1.59-1.41,2.87-2,3.85
	c-1.43,2.01-2.86,2.04-4.28,0.1l-0.68-0.78c-0.85-1.3-1.82-2.29-2.92-2.97c-1.11-0.68-2.47-1.02-4.09-1.02
	c-1.62,0-3.08,0.55-4.38,1.65c-1.3,1.1-1.95,2.56-1.95,4.38c0,2.01,0.76,3.67,2.29,4.97c1.52,1.3,3.58,1.95,6.18,1.95
	c4.02,0,8.11-2.32,10.64-5.69c1.25-1.67,2.31-3.62,3.36-5.98l-0.01,0c1.2-2.74,5.18-13.56,6.43-16.92l2.99-8.61l0.57-1.16h21.61
	l4.57,14.02c0.39,1.3,0.44,2.42,0.15,3.36c-0.29,0.94-1.12,1.67-2.48,2.19l-1.46,0.49v0.97h24.73v-0.97L85.15,68.42z M39.88,46.81
	L50.4,16.54l9.83,30.27H39.88z"/>
</svg>
